<?xml version="1.0" encoding="UTF-8" standalone="no"?>
<svg
   inkscape:export-ydpi="115.45"
   inkscape:export-xdpi="115.45"
   inkscape:export-filename="D:\Epsitec\xcraft.ch\x-logo.png"
   width="299.99997mm"
   height="300mm"
   viewBox="0 0 299.99997 300"
   version="1.1"
   id="svg8"
   sodipodi:docname="x-logo-mono.svg"
   inkscape:version="1.1.1 (3bf5ae0, 2021-09-20)"
   xmlns:inkscape="http://www.inkscape.org/namespaces/inkscape"
   xmlns:sodipodi="http://sodipodi.sourceforge.net/DTD/sodipodi-0.dtd"
   xmlns="http://www.w3.org/2000/svg"
   xmlns:svg="http://www.w3.org/2000/svg"
   xmlns:rdf="http://www.w3.org/1999/02/22-rdf-syntax-ns#"
   xmlns:cc="http://creativecommons.org/ns#"
   xmlns:dc="http://purl.org/dc/elements/1.1/">
  <defs
     id="defs2" />
  <sodipodi:namedview
     id="base"
     pagecolor="#ffffff"
     bordercolor="#666666"
     borderopacity="1.0"
     inkscape:pageopacity="0.0"
     inkscape:pageshadow="2"
     inkscape:zoom="0.18470961"
     inkscape:cx="2064.6767"
     inkscape:cy="-870.92789"
     inkscape:document-units="mm"
     inkscape:current-layer="layer2"
     inkscape:document-rotation="0"
     showgrid="false"
     inkscape:window-width="2560"
     inkscape:window-height="1357"
     inkscape:window-x="1920"
     inkscape:window-y="0"
     inkscape:window-maximized="1"
     inkscape:snap-grids="true"
     inkscape:snap-others="true"
     inkscape:snap-global="true"
     inkscape:pagecheckerboard="0"
     inkscape:rotation="-1"
     showguides="true"
     inkscape:guide-bbox="true"
     inkscape:snap-bbox="true"
     inkscape:snap-bbox-midpoints="true"
     inkscape:snap-bbox-edge-midpoints="true"
     inkscape:showpageshadow="0"
     inkscape:deskcolor="#d1d1d1">
    <inkscape:grid
       type="xygrid"
       id="grid833"
       spacingx="2.6458333"
       spacingy="2.6458333" />
  </sodipodi:namedview>
  <metadata
     id="metadata5">
    <rdf:RDF>
      <cc:Work
         rdf:about="">
        <dc:format>image/svg+xml</dc:format>
        <dc:type
           rdf:resource="http://purl.org/dc/dcmitype/StillImage" />
      </cc:Work>
    </rdf:RDF>
  </metadata>
  <g
     inkscape:groupmode="layer"
     id="layer2"
     inkscape:label="tools"
     style="display:inline"
     transform="translate(690.98136,393.35668)">
    <g
       id="g1532"
       transform="translate(-645.86523,-353.12879)">
      <circle
         style="display:inline;fill:#000000;stroke:#000000;stroke-width:0.00807931"
         id="path2476"
         cx="104.88387"
         cy="109.7721"
         r="149.99596" />
      <g
         id="g1513">
        <g
           aria-label="X"
           id="text1723"
           style="font-style:normal;font-weight:normal;font-size:10.5833px;line-height:1.25;font-family:sans-serif;display:inline;fill:#ffffff;fill-opacity:1;stroke:none;stroke-width:0.180475;stroke-linecap:butt;stroke-linejoin:miter;stroke-miterlimit:4;stroke-dasharray:none;stroke-opacity:1"
           transform="matrix(5.5409465,0,0,5.5409465,148.47211,-647.65822)">
          <path
             id="path1728"
             style="font-style:normal;font-variant:normal;font-weight:bold;font-stretch:normal;font-size:50.8px;font-family:'Times New Roman';-inkscape-font-specification:'Times New Roman, Bold';fill:#ffffff;fill-opacity:1;stroke:none;stroke-width:0.682109;stroke-linecap:butt;stroke-linejoin:miter;stroke-miterlimit:4;stroke-dasharray:none;stroke-opacity:1"
             d="m 20.195312,475.85742 c 5.312501,-7.81251 8.343752,-12.15625 9.09375,-13.03125 1.687503,-2.06249 3.34375,-3.53125 4.96875,-4.40625 1.625001,-0.875 3.875001,-1.53127 6.75,-1.96875 v -3.46875 h -63.09375 v 3.46875 h 3.1875 c 3.625001,0 6.156249,0.59376 7.59375,1.78125 1.4375022,1.12498 2.1562505,2.56251 2.1562505,4.3125 0,1.37499 -0.2187583,2.56248 -0.65625,3.5625 l -6.4687505,9.75 -9.375,13.97461 -9.375,-13.97461 -6.46875,-9.75 c -0.437491,-1.00002 -0.65625,-2.18751 -0.65625,-3.5625 0,-1.74999 0.718749,-3.18752 2.15625,-4.3125 1.437502,-1.18749 3.96875,-1.78125 7.59375,-1.78125 h 3.1875 v -3.46875 h -63.09375 v 3.46875 c 2.875,0.43748 5.125,1.09375 6.75,1.96875 1.625001,0.875 3.281248,2.34376 4.96875,4.40625 0.749999,0.875 3.78125,5.21874 9.09375,13.03125 l 27.798829,40.8711 -27.423829,40.8789 c -5.812497,8.625 -9.937499,13.87502 -12.375,15.75 -2.500002,1.81251 -5.437499,2.90625 -8.8125,3.28125 v 3.46875 h 61.96875 v -3.46875 c -4.937499,-0.37493 -8.124998,-1.12498 -9.5625,-2.25 -1.437497,-1.12497 -2.15625,-2.49999 -2.15625,-4.125 0,-1.12501 0.218759,-2.125 0.65625,-3 0.875003,-1.87498 3.062502,-5.375 6.5625,-10.5 l 9.1875,-13.50781 9.1875,13.50781 c 3.5,5.125 5.6875,8.62502 6.5625005,10.5 0.4374985,0.875 0.65625,1.87499 0.65625,3 0,1.62501 -0.7187502,3.00003 -2.1562505,4.125 -1.437499,1.12502 -4.625,1.87507 -9.5625,2.25 v 3.46875 h 61.96875 v -3.46875 c -3.375,-0.375 -6.3125,-1.46874 -8.8125,-3.28125 -2.4375,-1.87498 -6.5625,-7.125 -12.375,-15.75 l -27.4238276,-40.8789 z"
             transform="scale(0.26458333)"
             sodipodi:nodetypes="ccsccccscscccccscsccccscccccccccsscccccsscccccccc" />
        </g>
        <path
           id="rect2047-4"
           style="display:inline;fill:#ffffff;fill-opacity:1;stroke:none;stroke-width:1;stroke-linecap:round;stroke-linejoin:round;stroke-miterlimit:4;stroke-dasharray:none;stroke-opacity:1"
           d="m 116.15234,102.38477 c -3.2628,0.26626 -5.68403,2.69038 -8.24414,4.45312 -3.26455,2.54928 -3.80483,7.92698 -0.942,10.976 2.10932,2.98535 4.27492,5.93035 6.47911,8.84627 -3.88088,7.87789 -2.0039,18.20376 4.54644,24.0982 3.04082,2.81137 6.91765,4.7226 11.01411,5.35883 3.03841,6.42708 6.07682,12.85416 9.11523,19.28125 -0.8747,4.70894 1.55172,9.83411 5.75977,12.12695 4.54243,9.48764 8.92979,19.05563 13.7706,28.39417 1.85127,2.5473 3.4562,5.49257 6.26065,7.12146 3.28734,1.6173 7.61183,-0.14171 9.04104,-3.46721 1.0108,-2.09551 0.79234,-4.62901 -0.32536,-6.63592 -4.1383,-10.4461 -8.2766,-20.89219 -12.4149,-31.33828 0.3262,-0.64477 0.31737,-1.46011 0.68605,-2.05727 1.56308,-1.15267 3.13093,-2.29865 4.70458,-3.43687 0.76603,0.15098 1.60192,0.005 2.33339,0.0964 9.37155,7.61292 18.68664,15.29859 28.16856,22.77278 3.39627,1.99377 8.12151,0.0394 9.58941,-3.49314 1.18418,-2.56758 0.14341,-5.56016 -1.53219,-7.64963 -2.35019,-3.50613 -5.30902,-6.5473 -8.45209,-9.34472 -4.11382,-3.84662 -8.22764,-7.69324 -12.34146,-11.53985 3.66512,-0.0304 7.33204,-2.87238 7.62778,-6.64798 0.10618,-0.89765 0.0309,-1.81271 -0.18051,-2.68991 0.79995,-0.51728 1.50694,-1.25572 2.38708,-1.60587 5.1793,-0.0984 9.54415,-5.58291 8.27698,-10.65195 -0.7686,-5.33926 -6.19614,-9.7091 -11.61328,-8.82226 -3.08685,0.56754 -5.84403,2.8555 -6.8086,5.86523 -0.73209,0.53409 -1.46547,1.06621 -2.20507,1.58985 -3.13878,-1.91904 -7.74796,-1.21283 -9.86561,1.89664 -1.00639,1.31864 -1.61168,2.95753 -1.64025,4.62093 -0.66112,0.52248 -1.28629,1.09454 -1.83789,1.73243 -4.85927,-4.54097 -9.74638,-9.05199 -14.62305,-13.57422 1.48331,-9.04529 -3.79427,-18.85012 -12.37389,-22.25446 -3.44756,-1.44839 -7.28115,-2.00127 -10.99135,-1.49359 -2.24368,-3.03328 -4.39631,-6.12772 -6.72809,-9.09493 -1.35186,-1.73542 -3.23271,-3.26741 -5.51924,-3.3898 -0.37199,-0.0467 -0.74743,-0.0513 -1.12181,-0.0426 z m 16.24805,28.02929 c 0.47122,-0.003 0.94442,0.0612 1.39258,0.20899 -1.23625,0.68305 -2.26269,1.75316 -2.86133,3.03515 -1.42755,0.24673 -2.76477,0.95096 -3.80664,1.95313 0.0218,-0.75386 0.0565,-1.72647 0.66034,-2.22806 1.44982,-0.74451 2.76643,-1.74321 3.89239,-2.92038 0.23923,-0.0387 0.48128,-0.037 0.72266,-0.0488 z" />
        <path
           id="path1896-7"
           style="display:inline;fill:#ffffff;stroke:none;stroke-width:0.529167;stroke-linecap:round"
           d="m 37.708984,-3.4882812 c -5.836229,0.2079122 -10.78911,5.9422555 -10.160156,11.7441406 -2.933761,3.0762126 -2.943943,8.5367076 0.242188,11.4453126 0.493582,0.486147 1.042358,0.919535 1.636718,1.27539 -4.98957,10.473483 -3.387919,23.746698 4.045081,32.673942 6.432998,7.966007 16.980595,12.483267 27.191054,11.334276 0.581329,-0.06014 1.162409,-0.129773 1.740428,-0.217202 -0.133096,3.189358 1.679783,6.398899 4.527344,7.863281 0.390246,2.585118 2.110192,4.899798 4.410156,6.117188 0.622115,4.477692 5.415114,8.017789 9.878906,6.898437 0.464831,0.0087 0.639096,0.827063 1.008768,1.14643 3.195645,4.447935 6.39129,8.89587 9.586935,13.343806 -0.813551,4.57216 2.863494,9.53425 7.585938,9.71094 3.102786,0.28503 5.872586,-1.5418 8.146486,-3.44141 2.82532,-2.14474 6.12936,-3.88532 8.14888,-6.899984 2.39072,-4.299711 -0.0475,-10.512881 -4.82857,-11.855875 -0.50368,-0.388329 -1.35498,0.0097 -1.60788,-0.698665 -3.33251,-4.694662 -6.71077,-9.3591 -10.097079,-14.011277 -0.08877,-0.325646 0.369101,-0.714017 0.441546,-1.08981 1.429593,-3.34203 0.448593,-7.642604 -2.560051,-9.78568 -0.391548,-0.37819 -1.005059,-0.581767 -1.33569,-0.950993 -0.417954,-2.570651 -2.122624,-4.88061 -4.417017,-6.098341 C 90.796678,51.874959 88.35974,49.167947 85.330078,48.246094 90.837383,37.680664 89.575264,23.888346 81.964238,14.6633 75.45022,6.4540648 64.572867,1.8446504 54.142578,3.1542969 c -0.843774,-3.87503857 -4.738719,-7.0034126 -8.76414,-6.4677414 -0.950702,0.075313 -1.887985,0.3190893 -2.759297,0.7060226 -1.54047,-0.6677407 -3.238472,-0.9197477 -4.910157,-0.8808593 z" />
        <path
           id="path3996-4"
           style="display:inline;fill:#ffffff;fill-opacity:1;stroke:none;stroke-width:0.529169;stroke-linecap:butt;stroke-linejoin:miter;stroke-miterlimit:4;stroke-dasharray:none;stroke-opacity:1"
           d="m 146.18359,-3.8964844 c -4.35148,4.18304809 -8.70489,8.3641001 -13.05664,12.546875 4.11896,6.4781884 7.7354,13.2868034 12.19922,19.5371094 1.75391,1.501953 3.50781,3.003906 5.26172,4.505859 -5.77909,5.629634 -11.5779,11.267315 -16.76208,17.461132 -2.81924,3.434064 -5.50512,7.028771 -7.40855,11.06405 -1.82637,3.667028 -3.70035,7.519844 -6.99365,10.114321 -3.14869,2.698905 -6.46979,5.426328 -8.39886,9.184966 -3.17682,5.273327 -5.14799,11.514165 -4.41928,17.710688 0.68206,3.343894 3.38681,5.760574 6.10917,7.566054 3.58493,2.34071 8.05389,3.85745 12.3373,2.84429 4.99626,-1.3221 8.80855,-5.57325 10.485,-10.34885 1.50954,-3.997112 3.11925,-7.956092 4.91737,-11.832718 3.41799,-7.660568 6.93494,-15.257906 10.70633,-22.747504 3.92754,-7.12263 9.74514,-13.071427 16.34131,-17.766429 1.76507,1.338519 3.80663,2.800275 6.05469,2.822266 4.77224,0.521209 9.62409,0.562134 14.3108,1.684922 3.41064,0.931644 6.80107,1.930427 10.21459,2.854141 3.5673,-2.325148 7.13424,-4.650855 10.70117,-6.976563 -4.02271,-5.75185 -7.85891,-11.640217 -12.07422,-17.251953 -1.85872,-1.659505 -3.71744,-3.319011 -5.57617,-4.978516 -0.26407,-2.497421 -0.53012,-4.994637 -0.79297,-7.492187 -1.24878,-1.193773 -2.49588,-2.389293 -3.73437,-3.59375 1.24742,-2.964928 0.75329,-6.6667662 -1.52949,-9.0042815 -2.63401,-3.02764297 -7.39258,-4.3547872 -11.02578,-2.3791626 -0.67484,0.3690333 -1.30767,0.815023 -1.87832,1.3307095 -2.8229,-1.4920528 -5.77606,-3.00524988 -9.02979,-3.16076764 -4.29873,-0.52742196 -8.45549,-1.51474926 -12.60117,-2.76930406 -1.38015,-0.3782301 -2.76054,-0.755575 -4.14053,-1.1343815 -0.0723,0.069661 -0.14453,0.139323 -0.2168,0.2089844 z" />
        <path
           id="path1896"
           style="fill:#000000;stroke:none;stroke-width:0.529167;stroke-linecap:round"
           d="m 38.247277,2.3078694 a 5.0617408,5.0617408 0 0 0 -2.8267,0.9549804 5.0617408,5.0617408 0 0 0 -1.1436,7.0667522 l -2.01073,1.450557 c -1.160357,0.837125 -1.43373,2.426011 -0.6134,3.56309 0.82033,1.137079 2.414619,1.378694 3.574976,0.541569 l -0.04186,0.03049 2.16576,3.001884 A 25.308704,25.308704 0 0 0 37.106778,48.858 25.308704,25.308704 0 0 0 65.596513,58.067773 l 3.646289,5.054473 0.04186,-0.02998 c -1.160357,0.837126 -1.43373,2.426528 -0.6134,3.563607 0.82033,1.137078 2.414619,1.378177 3.574976,0.541054 l 1.974556,-1.42472 1.481564,2.052587 -1.975072,1.42472 c -1.160357,0.837123 -1.434246,2.426528 -0.613918,3.563607 0.82033,1.137076 2.415135,1.378694 3.575494,0.541568 l 1.976107,-1.425753 1.481045,2.052588 -1.976623,1.425755 c -1.160357,0.837123 -1.434245,2.426012 -0.613915,3.563088 0.820335,1.137086 2.415135,1.378693 3.575491,0.54157 L 83.108622,78.085155 98.559875,99.4916 c -1.112062,0.81762 -1.358119,2.36997 -0.548804,3.49178 l 0.02326,0.032 c 0.813869,1.12812 2.377599,1.38127 3.505729,0.5674 l 8.24239,-5.946404 c 1.12812,-0.813871 1.38076,-2.377088 0.56689,-3.505213 l -0.0233,-0.03255 c -0.80884,-1.121151 -2.35757,-1.377104 -3.48402,-0.581361 L 91.390286,72.110327 93.361742,70.688191 c 1.160356,-0.837126 1.43425,-2.426523 0.613915,-3.563607 -0.820327,-1.137078 -2.415135,-1.378693 -3.575492,-0.54157 l -1.97249,1.42317 -1.481045,-2.052071 1.973006,-1.42317 c 1.160357,-0.837123 1.43373,-2.426528 0.6134,-3.563607 -0.82033,-1.137076 -2.41462,-1.378693 -3.574976,-0.541568 l -1.974041,1.424202 -1.481563,-2.052071 1.975075,-1.424718 c 1.160357,-0.837126 1.433729,-2.426528 0.613399,-3.563606 -0.820332,-1.137079 -2.414619,-1.378178 -3.574976,-0.541052 l 0.04186,-0.03049 -0.589629,-0.81752 0.05116,-0.03721 -2.926953,-4.057116 -0.05116,0.03721 -0.12764,-0.176734 a 25.308704,25.308704 0 0 0 0.242876,-29.94391 25.308704,25.308704 0 0 0 -28.489732,-9.21029 L 47.500976,7.0305786 47.4586,7.0610676 C 48.61896,6.2239432 48.892848,4.6345395 48.072518,3.4974609 47.252186,2.3603815 45.657383,2.1187674 44.497024,2.9558919 l -2.010212,1.4505575 a 5.0617408,5.0617408 0 0 0 -4.239535,-2.09858 z" />
        <circle
           style="fill:#ffffff;stroke:none;stroke-width:1;stroke-linecap:butt;stroke-linejoin:miter;stroke-miterlimit:4;stroke-dasharray:none"
           id="path12873"
           cx="57.476177"
           cy="33.868454"
           r="17.52618" />
        <path
           id="path847-3"
           style="display:inline;fill:#ffffff;fill-opacity:1;stroke:none;stroke-width:0.999998;stroke-linecap:butt;stroke-linejoin:miter;stroke-miterlimit:4;stroke-dasharray:none;stroke-opacity:1"
           d="m 99.169922,111.02734 c -4.715754,0.28379 -8.80243,3.56503 -11.038752,7.58829 -10.85063,18.67065 -22.560895,36.82058 -34.373358,54.88828 -3.915647,-3.1408 -7.295464,-6.88455 -10.60481,-10.64108 -2.432694,-2.89847 -4.560585,-6.11862 -6.240893,-9.50736 -1.33916,-3.41146 -5.570792,-5.25918 -8.992017,-3.96323 -4.106495,1.26135 -7.225275,4.45522 -9.91068,7.66246 -4.606539,5.64424 -8.5346317,11.80898 -12.2173157,18.08383 -1.4727399,2.59793 -3.0246118,5.20027 -3.7775002,8.11751 -1.19353961,4.15393 -1.46542537,8.68208 -0.1970338,12.84833 1.2878932,3.2665 4.8883519,5.24451 8.2648537,5.2051 2.805254,0.19557 5.692632,-0.008 8.388841,0.94297 4.669058,1.20889 9.160632,3.01827 13.517024,5.07178 -0.948195,3.83066 0.720525,8.07455 3.903056,10.37011 3.624095,2.90274 9.084928,3.72223 13.150852,1.25801 0.67907,-0.42198 1.196253,-1.20046 2.067981,-1.19732 4.487505,-1.09757 8.041595,-4.40918 10.675604,-8.0669 3.354623,-4.21539 7.037358,-8.34508 9.072356,-13.40452 0.893045,-2.8291 0.838139,-5.92658 -0.03001,-8.7543 12.197181,-17.12499 25.003589,-33.8679 39.28527,-49.32079 3.50048,-3.98495 4.62836,-9.73717 3.30146,-14.82605 -1.2818,-5.22941 -5.02627,-10.04872 -10.22736,-11.79652 -1.29658,-0.4074 -2.65917,-0.59304 -4.017573,-0.5586 z" />
        <path
           id="rect2047"
           style="fill:#000000;fill-opacity:1;stroke:none;stroke-width:1;stroke-linecap:round;stroke-linejoin:round;stroke-miterlimit:4;stroke-dasharray:none;stroke-opacity:1"
           d="m 116.22266,108.2168 c -1.31335,0.42539 -2.22944,1.54499 -3.39162,2.24436 -0.89233,0.63224 -2.25221,1.38497 -1.92387,2.68903 0.37398,1.12196 1.32416,1.9309 1.93457,2.92544 2.03935,2.74328 3.99979,5.54972 6.10162,8.24078 0.54064,0.47158 1.37063,0.50177 1.98828,0.16797 0.4848,0.43818 0.56955,0.83741 -0.0122,1.21863 -3.91396,4.43635 -4.82885,11.25949 -2.13565,16.54266 2.52269,5.19293 8.25647,8.61558 14.03155,8.30786 3.8648,8.09396 7.68334,16.26448 11.53035,24.38788 -1.45114,2.76203 -0.0694,6.54647 2.82866,7.71538 0.48421,0.23944 1.13096,0.20337 1.22314,0.862 4.56332,9.65527 9.19121,19.28088 13.82711,28.90113 1.29604,1.71603 2.49749,3.51837 3.85179,5.18128 0.7611,0.6713 1.93273,-0.21631 1.68727,-1.13831 -4.66984,-11.74334 -9.31597,-23.51376 -13.97656,-35.26758 1.09634,-1.24838 1.5993,-2.99 1.33984,-4.63086 3.0768,-2.25354 6.15511,-4.58766 9.2461,-6.76953 1.53048,0.76613 3.41441,0.78615 4.95507,0.0371 9.82039,7.98396 19.61889,15.99909 29.45294,23.96356 0.81361,0.55185 1.8647,-0.38856 1.54121,-1.2702 -0.44647,-0.87492 -1.1875,-1.59162 -1.7178,-2.43022 -1.12804,-1.56083 -2.21973,-3.1714 -3.7266,-4.3989 -7.41482,-6.94969 -14.81241,-13.91789 -22.27045,-20.82127 0.098,-0.49422 -0.31464,-1.14453 0.29575,-1.37715 0.66061,-0.59044 1.78914,-0.51147 2.67607,-0.70295 1.02556,-0.0626 1.88236,-0.61476 2.64789,-1.25493 0.73288,-0.53676 1.46577,-1.07352 2.19865,-1.61028 0.58567,0.12975 1.31762,-0.008 1.625,0.62304 0.89913,0.97485 2.74566,0.66825 3.10742,-0.66601 0.39685,-1.41715 -0.94672,-2.43131 -1.61373,-3.501 -0.73238,-0.55187 0.3811,-0.81837 0.73068,-1.20296 2.45256,-1.79725 4.90511,-3.5945 7.35766,-5.39174 1.46207,1.05928 3.53655,-0.11163 4.0625,-1.65625 0.66404,-2.56408 -1.29747,-5.45789 -3.88281,-5.91211 -1.4316,-0.2243 -2.96876,0.82125 -3.33984,2.21093 -0.21727,0.40597 0.2135,0.96403 -0.0215,1.23047 -2.79419,1.99768 -5.54627,4.05535 -8.32422,6.07617 -0.78817,-0.98321 -1.35536,-2.25133 -2.46722,-2.90781 -1.40537,-0.63858 -3.06419,1.02385 -2.357,2.42344 0.28658,0.39963 0.52511,0.76758 0.30205,1.25548 -0.004,0.43939 -0.10179,0.89048 -0.57406,1.03547 -1.0846,0.88031 -2.3863,1.54556 -3.29768,2.60825 -0.56044,0.94329 -0.90068,2.06607 -1.61585,2.88596 -0.38705,0.40629 -0.75942,0.6992 -1.26813,0.28117 -0.81498,-0.3058 -1.70552,-0.41158 -2.56976,-0.31047 -6.62045,-6.13542 -13.24089,-12.27083 -19.86133,-18.40625 2.06841,-5.53278 0.44705,-12.2168 -3.96285,-16.15886 -4.42175,-4.11466 -11.4239,-5.13698 -16.81059,-2.37434 -0.45259,-0.42425 -0.56189,-0.77276 -0.10742,-1.22071 0.43583,-0.87322 -0.041,-1.81007 -0.65533,-2.44792 -2.41905,-3.26224 -4.75778,-6.5913 -7.24506,-9.80403 -0.38537,-0.32567 -0.916,-0.48377 -1.41406,-0.38281 z m 16.17773,16.35547 c 4.78266,-0.0343 9.31566,3.46235 10.48178,8.10274 0.4206,1.57059 0.48561,3.23614 0.18814,4.83476 -0.68902,-0.68202 -1.43074,-1.47908 -2.48402,-1.44806 -1.21516,-0.15616 -2.44151,-0.4388 -3.64967,-0.5157 -1.04035,0.26006 -1.2382,1.72815 -0.50861,2.4328 0.46605,0.87165 0.93211,1.74329 1.39816,2.61494 -0.94069,0.36335 -1.78458,0.97727 -2.41406,1.76563 -0.97362,-0.95032 -1.87812,-2.01182 -2.89389,-2.89431 -0.98802,-0.41917 -2.03482,0.63755 -1.86545,1.64186 -0.11807,1.33278 -0.64953,2.68654 -0.38351,4.0167 0.0436,0.38533 0.99325,1.4306 0.29129,1.27285 -4.53201,-0.66103 -8.42362,-4.43689 -9.11581,-8.98272 -0.2021,-1.1609 -0.21064,-2.48632 0.0117,-3.71621 0.34877,-1.96494 1.2389,-3.92763 2.60212,-5.34989 1.16116,0.34441 1.94724,-0.83462 2.85128,-1.33494 0.50765,-0.33397 1.0273,-0.84344 0.97685,-1.50295 1.41479,-0.63246 2.96602,-0.93788 4.51367,-0.9375 z m 28.95313,38.76562 c -0.18737,0.72407 -0.21289,1.48708 -0.0937,2.22461 -3.0834,2.25317 -6.16631,4.52786 -9.25,6.76758 -0.60954,-0.30674 -1.27489,-0.50497 -1.95508,-0.56641 -2.70899,-6.83854 -5.41797,-13.67708 -8.12696,-20.51562 0.93992,-0.36252 1.78156,-0.97378 2.41016,-1.76172 5.67188,4.61719 11.34375,9.23437 17.01563,13.85156 z" />
        <path
           id="path3996"
           style="display:inline;fill:#000000;fill-opacity:1;stroke:none;stroke-width:0.529169;stroke-linecap:butt;stroke-linejoin:miter;stroke-miterlimit:4;stroke-dasharray:none;stroke-opacity:1"
           d="m 148.05556,2.3828003 -7.51892,7.2212645 8.57105,14.1567582 9.46247,8.105966 c -1.36321,1.963063 -2.05879,3.230809 -2.05879,3.230809 0,0 -19.69665,18.192821 -23.88432,26.720334 -4.18768,8.527513 -5.41966,10.940264 -11.74192,15.910655 -6.32226,4.970391 -9.75208,15.610041 -8.40104,20.084047 2.58881,3.139846 4.8765,4.289606 8.53281,5.266346 3.65631,0.97675 7.95197,-2.82141 9.21546,-7.184575 1.2635,-4.363159 10.90512,-25.241798 15.25746,-34.019111 4.35235,-8.77732 13.68351,-17.497769 17.5302,-19.799827 1.06399,-0.636746 2.39165,-2.008214 3.78943,-3.751709 l 6.41667,4.557344 13.5387,1.224217 10.34976,2.881992 3.48299,-2.270143 -7.77006,-11.301119 -7.23781,-6.468856 -0.81493,-7.612973 -5.45703,-5.230688 c 0.8965,-1.369089 1.70037,-2.774072 2.0748,-3.766695 0.88988,-2.3590699 -2.94262,-4.5690744 -4.47828,-3.6809126 -0.83159,0.4809596 -2.23727,1.875011 -3.545,3.4070276 l -8.23619,-4.1237796 -8.2827,-1.1616862 z" />
        <path
           id="path847"
           style="display:inline;fill:#000000;fill-opacity:1;stroke:none;stroke-width:0.999998;stroke-linecap:butt;stroke-linejoin:miter;stroke-miterlimit:4;stroke-dasharray:none;stroke-opacity:1"
           d="m 99.868838,116.83524 c -2.304793,-0.0726 -4.739177,1.29983 -6.798035,4.86069 -11.449433,19.80218 -26.160962,42.54164 -37.504171,59.66612 -0.873892,-0.36458 -1.664123,-0.70958 -2.398302,-1.12344 -3.734009,-2.10486 -12.287578,-10.09399 -17.777725,-17.95136 l -4.28036,3.13572 c 0,0 2.02265,-2.85209 3.343466,-4.5222 -0.634614,-0.97291 -1.215248,-1.93882 -1.725475,-2.88509 -1.378866,-2.55727 -1.03604,-4.47389 -5.01985,-2.20297 -5.118753,2.91788 -13.322988,16.00679 -17.227889,22.81618 l 5.77019,5.12372 6.193421,1.4428 -8.249626,-0.185 -5.5702024,-3.00912 c -0.013978,0.0274 -0.03231,0.0613 -0.045475,0.0873 -1.9513304,3.85296 -2.5675423,11.87907 -0.6071981,12.81628 4.2247855,2.0198 4.7812315,-1.89375 22.2802935,5.21725 3.854497,1.56633 6.492729,2.86864 9.17825,5.33766 -0.322948,0.48349 -0.85933,1.27769 -1.053163,1.57458 -3.870648,5.92863 6.498891,9.89436 8.322487,6.11435 0.08046,-0.16678 0.237939,-0.4471 0.429432,-0.77824 2.47623,0.24892 5.529871,-1.05837 7.537524,-3.24838 1.631391,-1.77957 5.573971,-6.60142 8.223787,-10.35028 0.74195,-1.04968 1.382572,-2.01543 1.842783,-2.80654 1.50813,-2.5925 1.172231,-6.43748 -0.520383,-9.18446 11.596071,-16.46692 27.143512,-37.18053 41.129793,-51.92912 6.28059,-6.57093 0.8985,-17.81572 -5.473572,-18.01648 z" />
        <circle
           style="fill:#000000;stroke:none;stroke-width:4.23333"
           id="path1070"
           cx="67.155968"
           cy="47.212555"
           r="5.7017646" />
        <rect
           style="fill:#000000;stroke:none;stroke-width:4.23333"
           id="rect1320"
           width="4.0598245"
           height="28.305021"
           x="51.781952"
           y="35.244522"
           ry="2.0299122"
           transform="rotate(-13.390851)" />
        <rect
           style="display:inline;fill:#000000;stroke:none;stroke-width:4.23333"
           id="rect1320-6"
           width="5.6789718"
           height="7.2835956"
           x="51.026268"
           y="38.015232"
           ry="1.1307179"
           transform="rotate(-13.390851)" />
      </g>
    </g>
  </g>
</svg>
